<svg width="31" height="32" viewBox="0 0 31 32" fill="none" xmlns="http://www.w3.org/2000/svg">
<path d="M2.46248 17.6666H10.6666V26.8333C10.6666 29.3541 12.7291 31.4166 15.25 31.4166C17.7708 31.4166 19.8333 29.3541 19.8333 26.8333V17.6666H28.0375C30.1 17.6666 31.1083 15.1916 29.6416 13.7708L16.8541 0.983276C15.9375 0.0666097 14.5166 0.0666097 13.6 0.983276L0.812481 13.7708C0.495759 14.0939 0.281764 14.5035 0.197471 14.948C0.113178 15.3926 0.16236 15.8521 0.338812 16.2687C0.515264 16.6853 0.81109 17.0404 1.18901 17.2892C1.56693 17.5379 2.01004 17.6693 2.46248 17.6666Z" fill="#555555"/>
</svg>
