<svg width="83" height="83" viewBox="0 0 83 83" fill="none" xmlns="http://www.w3.org/2000/svg">
<path d="M73.3333 0H9.16667C4.125 0 0 4.125 0 9.16667V73.3333C0 78.375 4.125 82.5 9.16667 82.5H73.3333C78.375 82.5 82.5 78.375 82.5 73.3333V9.16667C82.5 4.125 78.375 0 73.3333 0ZM73.3333 50.4167H59.4917C56.6042 50.4167 53.9 51.7917 52.1583 54.0833C49.6833 57.4292 45.7417 59.5833 41.25 59.5833C36.7583 59.5833 32.8167 57.4292 30.3417 54.0833C28.6 51.7917 25.8958 50.4167 23.0083 50.4167H9.16667V9.16667H73.3333V50.4167Z" fill="#555555"/>
</svg>
