<svg width="85" height="46" viewBox="0 0 85 46" fill="none" xmlns="http://www.w3.org/2000/svg">
<path d="M10.6737 39.5244L1 21.7289L28.0846 33.2667L10.6737 39.5244Z" fill="#003F88"/>
<path d="M1 21.7289L12.028 9.01778L45.3037 12.3422L1 21.7289Z" fill="#003F88"/>
<path d="M45.3037 12.3422L33.1166 1L54.979 6.67111L76.8415 12.3422H45.3037Z" fill="#003F88"/>
<path d="M39.4995 33.2667L55.1725 45L84 33.2667H39.4995Z" fill="#003F88"/>
<path d="M28.0846 33.2667L10.6737 39.5244L32.9231 42.2622L55.1725 45L39.4995 33.2667H28.0846Z" fill="#4D96FF"/>
<path d="M1 21.7289L28.0846 33.2667H39.4995L76.8415 12.3422H45.3037L1 21.7289Z" fill="#89CFF0"/>
<path d="M12.028 9.01778L45.3037 12.3422L33.1166 1L12.028 9.01778Z" fill="#89CFF0"/>
<path d="M76.8415 12.3422L39.4995 33.2667H84L76.8415 12.3422Z" fill="#4D96FF"/>
<path d="M1 21.7289L10.6737 39.5244M1 21.7289L28.0846 33.2667M1 21.7289L45.3037 12.3422M1 21.7289L12.028 9.01778M10.6737 39.5244L28.0846 33.2667M10.6737 39.5244L32.9231 42.2622L55.1725 45M28.0846 33.2667H39.4995M39.4995 33.2667L76.8415 12.3422M39.4995 33.2667H84M39.4995 33.2667L55.1725 45M76.8415 12.3422H45.3037M76.8415 12.3422L84 33.2667M76.8415 12.3422L54.979 6.67111L33.1166 1M45.3037 12.3422L12.028 9.01778M45.3037 12.3422L33.1166 1M12.028 9.01778L33.1166 1M84 33.2667L55.1725 45" stroke="#D9D9D9" stroke-width="1.5"/>
</svg>
