<svg width="80" height="43" viewBox="0 0 80 43" fill="none" xmlns="http://www.w3.org/2000/svg">
<path d="M10.8578 36.604L2 20.5607L26.8004 30.9624L10.8578 36.604Z" fill="black"/>
<path d="M2 20.5607L12.0979 9.10113L42.5673 12.0982L2 20.5607Z" fill="black"/>
<path d="M42.5673 12.0982L31.4079 1.8728L71.4452 12.0982H42.5673Z" fill="black"/>
<path d="M37.2526 30.9624L51.6037 41.5404L78 30.9624H57.6263H37.2526Z" fill="black"/>
<path d="M26.8004 30.9624L10.8578 36.604L51.6037 41.5404L37.2526 30.9624H26.8004Z" fill="#555555"/>
<path d="M2 20.5607L26.8004 30.9624H37.2526L71.4452 12.0982H42.5673L2 20.5607Z" fill="#AAAAAA"/>
<path d="M12.0979 9.10113L42.5673 12.0982L31.4079 1.8728L12.0979 9.10113Z" fill="#D9D9D9"/>
<path d="M71.4452 12.0982L37.2526 30.9624H57.6263H78L71.4452 12.0982Z" fill="#555555"/>
<path d="M2 20.5607L10.8578 36.604M2 20.5607L26.8004 30.9624M2 20.5607L42.5673 12.0982M2 20.5607L12.0979 9.10113M10.8578 36.604L26.8004 30.9624M10.8578 36.604L51.6037 41.5404M26.8004 30.9624H37.2526M37.2526 30.9624L71.4452 12.0982M37.2526 30.9624L51.6037 41.5404M37.2526 30.9624H57.6263H78M71.4452 12.0982H42.5673M71.4452 12.0982L31.4079 1.8728M71.4452 12.0982L78 30.9624M42.5673 12.0982L12.0979 9.10113M42.5673 12.0982L31.4079 1.8728M12.0979 9.10113L31.4079 1.8728M78 30.9624L51.6037 41.5404" stroke="#F4F4F4" stroke-width="2"/>
</svg>
